<svg xmlns="http://www.w3.org/2000/svg" fill="none" width="16" height="16" viewBox="0 0 16 16">
  <style>
    path { fill: black; }
    @media (prefers-color-scheme: dark) {
      path { fill: white; }
    }
  </style>
  <path d="M7.21653 8.61382h1.94513v-.64704h-.2136c0 .2475-.18167.42995-.45914.42995h-.29947v-.96597h.32289v-.21427H7.21653v.21427h.32643l.00071.96597h-.32714v.21709Zm2.88047.00071.7564.00071.6423-1.18377h.3221V7.2172h-.9686v.21427h.2803l-.4684.86201-.474-.86201h.3399V7.2172H9.12192l-.00071.21427h.32218l.65361 1.18306ZM3.3433 7.2172H1.93821l-.00071.21427h.32218l.65358 1.18306.75648.00071.64222-1.18377h.32218V7.2172h-.96866v.21427h.2796l-.46766.86201-.47404-.86201h.33992V7.2172Zm1.4789.70008c0 .41156.33282.73897.99988.73897.66707 0 .99634-.32741.99634-.73897 0-.4059-.34914-.72978-1.0006-.72978-.65003 0-.99562.32388-.99562.72978Zm1.34335.00353c-.00426.25387-.11.51834-.35411.5141-.23773-.00424-.34205-.26589-.33779-.52612.00496-.26942.13412-.50419.35695-.50066.22282.00354.33992.24326.33495.51268Zm5.83825-.00353c0 .41156.3328.73897.9999.73897.667 0 .9963-.32741.9963-.73897 0-.4059-.3491-.72978-.9999-.72978-.6507 0-.9963.32388-.9963.72978Zm1.0084-.50915c.2221.00424.3399.24326.3349.51268-.0049.25387-.11.51834-.3541.5141-.2377-.00424-.342-.26589-.3378-.52612.005-.27013.1341-.5049.357-.50066Z"/>
  <path d="m14.5831 3.45448-.8126.81261C14.4669 5.34184 14.8721 6.62345 14.8721 8c0 3.7953-3.0768 6.8721-6.8721 6.8721-3.79525 0-6.87212-3.0768-6.87212-6.8721 0-3.79525 3.07687-6.87212 6.87212-6.87212 1.37938 0 2.6638.40666 3.7407 1.10662l.8126-.81261C11.2611.52569 9.69182 0 8 0 3.58201 0 0 3.5813 0 8c0 4.4187 3.5813 8 8 8 4.4187 0 8-3.5813 8-8-.0007-1.68898-.5243-3.25469-1.4169-4.54552Z"/>
  <path d="M12.0312.3125v.22427c.4848.26248.9405.57235 1.3629.92043l-1.1385 1.13833a6.85096 6.85096 0 0 1 1.1548 1.15319l1.1371-1.13691c.3489.42307.6588.87939.9213 1.35694h.2187V.3125h-3.6563Z"/>
</svg>
